<svg width="96" height="96" xmlns="http://www.w3.org/2000/svg" xmlns:xlink="http://www.w3.org/1999/xlink" xml:space="preserve" overflow="hidden"><g transform="translate(-300 -52)"><g><path d="M338 80.998 358 80.998 358 90.998 338 90.998Z" fill="#000F7E" fill-rule="nonzero" fill-opacity="1"/><path d="M314 80.998 334 80.998 334 90.998 314 90.998Z" fill="#000F7E" fill-rule="nonzero" fill-opacity="1"/><path d="M314 94.998 322 94.998 322 104.998 314 104.998Z" fill="#000F7E" fill-rule="nonzero" fill-opacity="1"/><path d="M374 95 382 95 382 105 374 105Z" fill="#000F7E" fill-rule="nonzero" fill-opacity="1"/><path d="M326 95 346 95 346 105 326 105Z" fill="#000F7E" fill-rule="nonzero" fill-opacity="1"/><path d="M350 95 370 95 370 105 350 105Z" fill="#000F7E" fill-rule="nonzero" fill-opacity="1"/><path d="M338 109 358 109 358 119 338 119Z" fill="#000F7E" fill-rule="nonzero" fill-opacity="1"/><path d="M314 109 334 109 334 119 314 119Z" fill="#000F7E" fill-rule="nonzero" fill-opacity="1"/><path d="M314 123 322 123 322 133 314 133Z" fill="#000F7E" fill-rule="nonzero" fill-opacity="1"/><path d="M374 123 382 123 382 133 374 133Z" fill="#000F7E" fill-rule="nonzero" fill-opacity="1"/><path d="M362 109 382 109 382 119 362 119Z" fill="#000F7E" fill-rule="nonzero" fill-opacity="1"/><path d="M326 123 346 123 346 133 326 133Z" fill="#000F7E" fill-rule="nonzero" fill-opacity="1"/><path d="M350 123 370 123 370 133 350 133Z" fill="#000F7E" fill-rule="nonzero" fill-opacity="1"/><path d="M360 69.8745 378.384 61.9972 382.294 71.1228 363.911 79Z" fill="#000F7E" fill-rule="nonzero" fill-opacity="1"/></g></g></svg>