<svg width="97" height="96" xmlns="http://www.w3.org/2000/svg" xmlns:xlink="http://www.w3.org/1999/xlink" xml:space="preserve" overflow="hidden"><g transform="translate(-120 -72)"><g><g><g><g><path d="M161.733 158.185 207 147.259 207 97.539 174.054 81.85 131 91.244 131 141.637ZM173.327 88.15 194.865 98.406 177.429 102.314 162.581 105.642 142.562 94.862ZM137 138.053 137 98.682 159.145 110.607 159.145 149.978ZM201 142.535 165.145 151.19 165.145 111.217 180.729 107.723 201 103.18Z" fill="#000F7E" fill-rule="nonzero" fill-opacity="1"/><path d="M172.69 90.186 174.69 90.186 174.69 94.186 172.69 94.186Z" fill="#000F7E" fill-rule="nonzero" fill-opacity="1"/><path d="M172.69 111.186 174.69 111.186 174.69 115.186 172.69 115.186Z" fill="#000F7E" fill-rule="nonzero" fill-opacity="1"/><path d="M172.69 118.186 174.69 118.186 174.69 122.186 172.69 122.186Z" fill="#000F7E" fill-rule="nonzero" fill-opacity="1"/><path d="M172.69 97.186 174.69 97.186 174.69 101.186 172.69 101.186Z" fill="#000F7E" fill-rule="nonzero" fill-opacity="1"/><path d="M172.69 125.186 174.69 125.186 174.69 129.186 172.69 129.186Z" fill="#000F7E" fill-rule="nonzero" fill-opacity="1"/><path d="M187.282 138.431 188.107 136.609 191.751 138.258 190.927 140.08Z" fill="#000F7E" fill-rule="nonzero" fill-opacity="1"/><path d="M167.977 131.408 171.886 130.556 172.311 132.51 168.403 133.362Z" fill="#000F7E" fill-rule="nonzero" fill-opacity="1"/><path d="M140.621 137.377 144.529 136.525 144.955 138.479 141.047 139.331Z" fill="#000F7E" fill-rule="nonzero" fill-opacity="1"/><path d="M180.904 135.547 181.728 133.725 185.372 135.373 184.548 137.195Z" fill="#000F7E" fill-rule="nonzero" fill-opacity="1"/><path d="M193.66 141.316 194.484 139.494 198.129 141.143 197.304 142.965Z" fill="#000F7E" fill-rule="nonzero" fill-opacity="1"/><path d="M174.527 132.661 175.352 130.839 178.996 132.487 178.172 134.31Z" fill="#000F7E" fill-rule="nonzero" fill-opacity="1"/><path d="M147.46 135.885 151.368 135.033 151.794 136.988 147.886 137.839Z" fill="#000F7E" fill-rule="nonzero" fill-opacity="1"/><path d="M154.299 134.393 158.208 133.542 158.633 135.496 154.725 136.347Z" fill="#000F7E" fill-rule="nonzero" fill-opacity="1"/></g></g></g></g></g></svg>