<svg width="97" height="97" xmlns="http://www.w3.org/2000/svg" xmlns:xlink="http://www.w3.org/1999/xlink" xml:space="preserve" overflow="hidden"><g transform="translate(-652 -116)"><g><g><g><g><path d="M735.65 179.63C733.17 178.33 723.46 175.06 715.3 171.89 713.3 171.1 711.51 169.64 711.16 167.5 710.75 165.02 712.47 163.27 714.3 161.67 719.3 157.25 724.24 156.07 726.24 154.07 730.213 150.233 730.323 143.902 726.486 139.93 722.649 135.958 716.318 135.847 712.346 139.684 712.262 139.765 712.18 139.847 712.1 139.93 711.1 140.93 709.9 142.93 708.26 145.02 702.59 152.13 701.17 152.89 697.15 152.89L697.15 152.89C694.796 152.83 692.735 151.297 692 149.06 689.71 142.64 687 134.76 685.88 132.67 683.687 128.732 678.718 127.317 674.78 129.51 670.842 131.703 669.427 136.672 671.62 140.61 673.776 143.786 676.234 146.747 678.96 149.45 681.005 151.508 681.912 154.436 681.39 157.29 680.525 161.575 676.574 164.522 672.22 164.13 671.22 164.05 670.46 164 670.02 164 666.618 164 663.86 166.758 663.86 170.16 663.86 173.562 666.618 176.32 670.02 176.32 670.96 176.32 673.4 176.11 676.44 175.73 678.937 175.393 681.364 176.712 682.44 178.99 683.44 181.12 682.44 183.22 681.44 185.36 680.781 186.751 680.016 188.088 679.15 189.36 677.951 191.675 678.855 194.523 681.17 195.722 683.339 196.845 686.006 196.129 687.32 194.07 688.08 192.75 688.79 188.68 691.59 183.07 691.942 182.2 692.6 181.489 693.44 181.07 695.154 180.345 697.132 181.146 697.857 182.86 697.913 182.994 697.961 183.13 698 183.27 698.32 184.35 698.62 185.27 698.82 185.74 699.891 187.866 702.482 188.722 704.608 187.651 706.448 186.724 707.375 184.624 706.82 182.64 706.621 182.192 706.387 181.761 706.12 181.35 705.447 180.335 705.664 178.974 706.62 178.22 707.565 177.592 708.823 177.722 709.62 178.53 716.78 184.69 725.35 192.65 728 194.06 731.926 196.272 736.903 194.883 739.115 190.956 741.327 187.03 739.937 182.054 736.011 179.841 735.879 179.767 735.746 179.697 735.61 179.63Z" fill="#000C89" fill-rule="nonzero" fill-opacity="1"/><path d="M704.84 137C704.84 139.209 703.049 141 700.84 141 698.631 141 696.84 139.209 696.84 137 696.84 134.791 698.631 133 700.84 133 703.049 133 704.84 134.791 704.84 137Z" fill="#000C89" fill-rule="nonzero" fill-opacity="1"/><path d="M672.84 152.21C672.84 155.087 670.507 157.42 667.63 157.42 664.753 157.42 662.42 155.087 662.42 152.21 662.42 149.333 664.753 147 667.63 147 670.507 147 672.84 149.333 672.84 152.21Z" fill="#000C89" fill-rule="nonzero" fill-opacity="1"/><path d="M671.84 185C671.84 186.105 670.945 187 669.84 187 668.735 187 667.84 186.105 667.84 185 667.84 183.895 668.735 183 669.84 183 670.945 183 671.84 183.895 671.84 185Z" fill="#000C89" fill-rule="nonzero" fill-opacity="1"/><path d="M697.84 197.5C697.84 198.328 697.168 199 696.34 199 695.512 199 694.84 198.328 694.84 197.5 694.84 196.672 695.512 196 696.34 196 697.168 196 697.84 196.672 697.84 197.5Z" fill="#000C89" fill-rule="nonzero" fill-opacity="1"/><path d="M716.84 199.5C716.84 201.433 715.273 203 713.34 203 711.407 203 709.84 201.433 709.84 199.5 709.84 197.567 711.407 196 713.34 196 715.273 196 716.84 197.567 716.84 199.5Z" fill="#000C89" fill-rule="nonzero" fill-opacity="1"/><path d="M730.84 168C730.84 169.105 729.945 170 728.84 170 727.735 170 726.84 169.105 726.84 168 726.84 166.895 727.735 166 728.84 166 729.945 166 730.84 166.895 730.84 168Z" fill="#000C89" fill-rule="nonzero" fill-opacity="1"/></g></g></g></g></g></svg>