<svg width="97" height="97" xmlns="http://www.w3.org/2000/svg" xmlns:xlink="http://www.w3.org/1999/xlink" xml:space="preserve" overflow="hidden"><g transform="translate(-413 -84)"><g><g><g><g><path d="M445.885 117.811 488.455 117.811 488.455 113.167C488.455 111.289 486.933 109.767 485.055 109.767L459.577 109.767 450.234 103.567C449.675 103.205 449.03 103 448.365 102.972L432.4 102.972C430.522 102.972 429 104.494 429 106.372L429 148.766 429.034 148.766 440.284 121.435C441.289 119.242 443.473 117.829 445.885 117.811Z" fill="#000F83" fill-rule="nonzero" fill-opacity="1"/><path d="M470.959 135.947C476.383 130.525 484.767 129.41 491.42 133.225L494.91 125.725C495.138 125.251 495.255 124.73 495.25 124.204 495.26 122.458 493.945 120.988 492.209 120.804L445.9 120.804C444.656 120.812 443.53 121.541 443.012 122.672L431.548 150.538 466.19 150.538C465.367 145.193 467.138 139.775 470.959 135.947Z" fill="#000F83" fill-rule="nonzero" fill-opacity="1"/><path d="M477.323 142.311C475.171 144.465 474.43 147.656 475.412 150.538L483.359 150.538 487.595 141.438C484.416 139.189 480.079 139.557 477.323 142.308Z" fill="#000F83" fill-rule="nonzero" fill-opacity="1"/><path d="M492.879 138.068C487.418 132.599 478.557 132.593 473.089 138.054 468.083 143.052 467.595 151 471.951 156.574L469.758 158.767C468.556 158.441 467.271 158.782 466.389 159.661L460.025 166.025C458.658 167.392 458.658 169.608 460.025 170.975 461.392 172.342 463.608 172.342 464.975 170.975L471.339 164.611C472.218 163.729 472.559 162.444 472.233 161.242L474.433 159.042C480.543 163.773 489.332 162.656 494.064 156.545 498.383 150.968 497.875 143.048 492.879 138.068ZM490.758 155.746C486.462 160.042 479.497 160.042 475.202 155.746 470.906 151.451 470.906 144.486 475.201 140.19 479.497 135.894 486.462 135.894 490.758 140.19 490.758 140.19 490.758 140.19 490.758 140.19 495.047 144.488 495.047 151.448 490.758 155.746Z" fill="#000F83" fill-rule="nonzero" fill-opacity="1"/></g></g></g></g></g></svg>