<svg width="97" height="98" xmlns="http://www.w3.org/2000/svg" xmlns:xlink="http://www.w3.org/1999/xlink" xml:space="preserve" overflow="hidden"><g transform="translate(-72 -418)"><g><g><g><g><path d="M112.346 452 125.077 452 112.377 430C100.62 432.749 90.865 440.912 86.086 452Z" fill="#000F7E" fill-rule="nonzero" fill-opacity="1"/><path d="M133.738 459 133.715 459.013 136.083 463.113 148.8 441.1C141.623 433.375 131.551 428.99 121.006 429 119.524 429.003 118.043 429.092 116.571 429.266Z" fill="#000F7E" fill-rule="nonzero" fill-opacity="1"/><path d="M132.108 478 157.383 478C160.857 466.493 158.686 454.02 151.528 444.364Z" fill="#000F7E" fill-rule="nonzero" fill-opacity="1"/><path d="M129.666 482 116.935 482 129.635 504C141.391 501.251 151.147 493.088 155.925 482Z" fill="#000F7E" fill-rule="nonzero" fill-opacity="1"/><path d="M108.273 475 108.297 474.987 105.913 470.859 93.2 492.885C100.377 500.619 110.455 505.01 121.006 505 122.488 504.997 123.969 504.908 125.441 504.734Z" fill="#000F7E" fill-rule="nonzero" fill-opacity="1"/><path d="M109.873 456 84.629 456C81.1576 467.497 83.322 479.959 90.467 489.612Z" fill="#000F7E" fill-rule="nonzero" fill-opacity="1"/></g></g></g></g></g></svg>