<svg width="98" height="97" xmlns="http://www.w3.org/2000/svg" xmlns:xlink="http://www.w3.org/1999/xlink" xml:space="preserve" overflow="hidden"><g transform="translate(-286 -297)"><g><g><g><g><path d="M358 346C358 347.657 356.657 349 355 349L322.24 349 331.12 357.88C332.25 359.092 332.182 360.991 330.97 362.12 329.818 363.194 328.032 363.194 326.88 362.12L312.88 348.12C311.71 346.949 311.71 345.051 312.88 343.88L326.88 329.88C328.092 328.75 329.991 328.818 331.12 330.03 332.194 331.182 332.194 332.968 331.12 334.12L322.24 343 355 343C356.657 343 358 344.343 358 346Z" stroke="#000000" stroke-width="1" stroke-linecap="butt" stroke-linejoin="miter" stroke-miterlimit="4" stroke-opacity="1" fill="#92D050" fill-rule="nonzero" fill-opacity="1"/><path d="M297 346C297 366.987 314.013 384 335 384 355.987 384 373 366.987 373 346 373 325.013 355.987 308 335 308 314.013 308 297 325.013 297 346ZM303 346C303 328.327 317.327 314 335 314 352.673 314 367 328.327 367 346 367 363.673 352.673 378 335 378 317.327 378 303 363.673 303 346Z" stroke="#000000" stroke-width="1" stroke-linecap="butt" stroke-linejoin="miter" stroke-miterlimit="4" stroke-opacity="1" fill="#92D050" fill-rule="nonzero" fill-opacity="1"/></g></g></g></g></g></svg>