<svg width="96" height="96" xmlns="http://www.w3.org/2000/svg" xmlns:xlink="http://www.w3.org/1999/xlink" xml:space="preserve" overflow="hidden"><g transform="translate(-592 -312)"><g><path d="M611.5 343.9 613.2 331.9 617.1 337.1 620.3 334.7 612.3 324 601.7 332 604.1 335.2 609.3 331.3 607.5 343.3 606.6 350.1 604.8 362.1 601 357 597.8 359.4 605.7 370 616.4 362 614 358.8 608.8 362.7 610.5 350.7Z" fill="#4EA72E" fill-rule="nonzero" fill-opacity="1"/><path d="M680.1 382.2C677.5 376.4 683.9 372.9 678.9 361.9 677.7 359.3 673.8 350.6 672.2 347.1 671 344.4 667.8 343.1 665 344.4 663.8 344.9 662.9 345.8 662.3 347 662.3 347.1 662.2 347.1 662.1 347 661.9 346.5 661.7 346.1 661.3 345.7 660.3 344.4 658.8 343.6 657.2 343.6 654.9 343.5 652.9 344.9 652 346.9 652 347 651.9 347 651.8 346.9 650 344.6 646.7 344.2 644.3 346 642.9 347 642.1 349 642.5 351 642.5 351.1 642.4 351.1 642.4 351L633.8 331.8C632.8 329.5 630.1 328.3 627.8 329.3 625.5 330.3 624.3 333 625.3 335.3 625.3 335.4 625.4 335.4 625.4 335.5L642.7 374.2 640 374.8 627.8 366.4C625.8 365 623 365.3 621.5 367.1 619.7 369.2 620.2 372.4 622.4 373.9L641.4 386.9C641.9 387.2 642.4 387.5 643 387.6L654.9 390.4 655.3 390.9 658.1 397.1 682 386.3 680.1 382.2Z" fill="#4EA72E" fill-rule="nonzero" fill-opacity="1"/></g></g></svg>