<svg width="96" height="97" xmlns="http://www.w3.org/2000/svg" xmlns:xlink="http://www.w3.org/1999/xlink" xml:space="preserve" overflow="hidden"><g transform="translate(-272 -172)"><g><g><g><g><path d="M320 233C313.4 233 308 227.6 308 221 308 214.4 313.4 209 320 209 326.6 209 332 214.4 332 221 332 227.6 326.6 233 320 233ZM347 213.5C346.4 211.3 345.5 209.2 344.4 207.3L346.9 199.8 341.2 194.1 333.7 196.6C331.7 195.5 329.6 194.6 327.4 194L324 187 316 187 312.5 194C310.3 194.6 308.2 195.5 306.3 196.6L298.8 194.1 293.1 199.8 295.6 207.3C294.5 209.3 293.6 211.4 293 213.6L286 217 286 225 293 228.5C293.6 230.7 294.5 232.8 295.6 234.7L293.1 242.2 298.8 247.9 306.3 245.4C308.3 246.5 310.4 247.4 312.6 248L316.1 255 324.1 255 327.6 248C329.8 247.4 331.9 246.5 333.8 245.4L341.3 247.9 347 242.2 344.5 234.7C345.6 232.7 346.5 230.6 347.1 228.4L354.1 224.9 354.1 216.9 347 213.5Z" fill="#000F7E" fill-rule="nonzero" fill-opacity="1"/></g></g></g></g></g></svg>