<svg width="98" height="98" xmlns="http://www.w3.org/2000/svg" xmlns:xlink="http://www.w3.org/1999/xlink" xml:space="preserve" overflow="hidden"><g transform="translate(-430 -174)"><g><g><g><g><path d="M516.5 250.6 504 238.1C502.3 236.4 500 235.8 497.8 236.2L493.4 231.8C497.3 226.8 499.6 220.4 499.6 213.6 499.6 197.1 486.1 183.6 469.6 183.6 453.1 183.6 439.6 197.1 439.6 213.6 439.6 230.1 453.1 243.6 469.6 243.6 476.4 243.6 482.7 241.3 487.8 237.4L492.2 241.8C491.8 244 492.4 246.3 494.1 248L506.6 260.5C508 261.9 509.8 262.6 511.6 262.6 513.4 262.6 515.2 261.9 516.6 260.5 519.2 257.7 519.2 253.3 516.5 250.6ZM469.5 237.5C456.3 237.5 445.5 226.7 445.5 213.5 445.5 200.3 456.3 189.5 469.5 189.5 482.7 189.5 493.5 200.3 493.5 213.5 493.5 226.7 482.7 237.5 469.5 237.5Z" fill="#000F7E" fill-rule="nonzero" fill-opacity="1"/></g></g></g></g></g></svg>