<svg width="96" height="96" xmlns="http://www.w3.org/2000/svg" xmlns:xlink="http://www.w3.org/1999/xlink" xml:space="preserve" overflow="hidden"><g transform="translate(-88 -264)"><g><path d="M162.613 286.357 153.973 286.357 145.586 277.97 136 282.762 124.018 280.366 119.225 286.357 109.387 286.357 101 295.996 171 296 162.613 286.357Z" fill="#000F7E" fill-rule="nonzero" fill-opacity="1"/><path d="M181 338 154.717 338C156.65 335.657 156.318 332.19 153.975 330.257 151.632 328.324 148.165 328.657 146.232 331 144.555 333.032 144.555 335.968 146.232 338L124.743 338C126.676 335.657 126.343 332.19 124 330.257 121.656 328.325 118.19 328.658 116.257 331.001 114.581 333.033 114.581 335.968 116.257 338L90 338 90 342 95 342 95 345 104 345 104 342 113 342 113 345 122 345 122 342 131 342 131 345 140 345 140 342 149 342 149 345 158 345 158 342 167 342 167 345 176 345 176 342 181 342Z" fill="#000F7E" fill-rule="nonzero" fill-opacity="1"/><path d="M110.263 334 112.025 334C112.294 329.319 116.307 325.743 120.987 326.012 125.292 326.26 128.728 329.695 128.975 334L142 334C142.274 329.32 146.29 325.747 150.971 326.021 155.268 326.273 158.698 329.702 158.949 334L160.712 334 172.08 307 175 307 175 300 96 300 96 307 98.9 307Z" fill="#000F7E" fill-rule="nonzero" fill-opacity="1"/></g></g></svg>