<svg width="97" height="97" xmlns="http://www.w3.org/2000/svg" xmlns:xlink="http://www.w3.org/1999/xlink" xml:space="preserve" overflow="hidden"><g transform="translate(-936 -21)"><g><g><g><g><path d="M1010 104 960 104 960 42 971 42 971 48 999 48 999 42 1010 42ZM985 34C986.657 34 988 35.3431 988 37 988 38.6569 986.657 40 985 40 983.343 40 982 38.6569 982 37 981.973 35.3704 983.272 34.0273 984.901 34 984.934 33.9994 984.967 33.9994 985 34ZM1012 36 995 36 995 34C995 31.7909 993.209 30 991 30L979 30C976.791 30 975 31.7909 975 34L975 36 958 36C955.791 36 954 37.7909 954 40L954 106C954 108.209 955.791 110 958 110L1012 110C1014.21 110 1016 108.209 1016 106L1016 40C1016 37.7909 1014.21 36 1012 36Z" fill="#000C89" fill-rule="nonzero" fill-opacity="1"/><path d="M987 56 1004 56 1004 60 987 60Z" fill="#000C89" fill-rule="nonzero" fill-opacity="1"/><path d="M987 68 1004 68 1004 72 987 72Z" fill="#000C89" fill-rule="nonzero" fill-opacity="1"/><path d="M987 80 1004 80 1004 84 987 84Z" fill="#000C89" fill-rule="nonzero" fill-opacity="1"/><path d="M987 92 1004 92 1004 96 987 96Z" fill="#000C89" fill-rule="nonzero" fill-opacity="1"/><path d="M968.5 78.5 975.5 78.5 975.5 85.5 968.5 85.5Z" fill="#000C89" fill-rule="nonzero" fill-opacity="1"/><path d="M968.5 90.5 975.5 90.5 975.5 97.5 968.5 97.5Z" fill="#000C89" fill-rule="nonzero" fill-opacity="1"/><path d="M966.707 57.8 968.8 55.707 971.4 58.307 978 51.707 980.093 53.8 971.4 62.493 966.707 57.8Z" fill="#000C89" fill-rule="nonzero" fill-opacity="1"/><path d="M966.707 69.8 968.8 67.707 971.4 70.307 978 63.707 980.093 65.8 971.4 74.493 966.707 69.8Z" fill="#000C89" fill-rule="nonzero" fill-opacity="1"/></g></g></g></g></g></svg>