<svg width="335" height="486" xmlns="http://www.w3.org/2000/svg" xmlns:xlink="http://www.w3.org/1999/xlink" xml:space="preserve" overflow="hidden"><g transform="translate(-2598 -1915)"><g><g><g><g><path d="M2742.02 2366.26 2897.62 2328.7 2897.62 2157.79 2784.37 2103.86 2636.37 2136.15 2636.37 2309.38ZM2781.87 2125.52 2855.91 2160.77 2795.97 2174.2 2744.93 2185.64 2676.12 2148.59ZM2657 2297.06 2657 2161.72 2733.12 2202.71 2733.12 2338.05ZM2877 2312.46 2753.75 2342.22 2753.75 2204.81 2807.32 2192.8 2877 2177.18Z" fill="#000C89" fill-rule="nonzero" fill-opacity="1"/><path d="M2779.68 2132.51 2786.56 2132.51 2786.56 2146.26 2779.68 2146.26Z" fill="#000C89" fill-rule="nonzero" fill-opacity="1"/><path d="M2779.68 2204.7 2786.56 2204.7 2786.56 2218.45 2779.68 2218.45Z" fill="#000C89" fill-rule="nonzero" fill-opacity="1"/><path d="M2779.68 2228.76 2786.56 2228.76 2786.56 2242.51 2779.68 2242.51Z" fill="#000C89" fill-rule="nonzero" fill-opacity="1"/><path d="M2779.68 2156.58 2786.56 2156.58 2786.56 2170.33 2779.68 2170.33Z" fill="#000C89" fill-rule="nonzero" fill-opacity="1"/><path d="M2779.68 2252.83 2786.56 2252.83 2786.56 2266.58 2779.68 2266.58Z" fill="#000C89" fill-rule="nonzero" fill-opacity="1"/><path d="M2829.85 2298.36 2832.68 2292.09 2845.21 2297.76 2842.37 2304.02Z" fill="#000C89" fill-rule="nonzero" fill-opacity="1"/><path d="M2763.48 2274.21 2776.92 2271.29 2778.38 2278 2764.95 2280.93Z" fill="#000C89" fill-rule="nonzero" fill-opacity="1"/><path d="M2669.45 2294.73 2682.88 2291.81 2684.35 2298.52 2670.91 2301.45Z" fill="#000C89" fill-rule="nonzero" fill-opacity="1"/><path d="M2807.92 2288.44 2810.75 2282.18 2823.28 2287.84 2820.45 2294.11Z" fill="#000C89" fill-rule="nonzero" fill-opacity="1"/><path d="M2851.77 2308.28 2854.6 2302.01 2867.13 2307.68 2864.3 2313.94Z" fill="#000C89" fill-rule="nonzero" fill-opacity="1"/><path d="M2786 2278.52 2788.83 2272.26 2801.36 2277.93 2798.53 2284.19Z" fill="#000C89" fill-rule="nonzero" fill-opacity="1"/><path d="M2692.96 2289.6 2706.39 2286.68 2707.85 2293.39 2694.42 2296.32Z" fill="#000C89" fill-rule="nonzero" fill-opacity="1"/><path d="M2716.47 2284.48 2729.9 2281.55 2731.36 2288.27 2717.93 2291.19Z" fill="#000C89" fill-rule="nonzero" fill-opacity="1"/></g></g></g><g><g><g><path d="M73.2083 94.125 73.2083 62.75 10.4583 125.5C9.67396 125.5 73.2083 188.25 73.2083 188.25L73.2083 156.875 240.542 125.5 73.2083 94.125Z" stroke="#000C89" stroke-width="2.61459" stroke-linecap="butt" stroke-linejoin="miter" stroke-miterlimit="4" stroke-opacity="1" fill="#FFC000" fill-rule="nonzero" fill-opacity="1" transform="matrix(-1.83697e-16 -1 1.31474 -2.41514e-16 2602 2169)"/></g></g></g></g></g></svg>