<svg width="96" height="97" xmlns="http://www.w3.org/2000/svg" xmlns:xlink="http://www.w3.org/1999/xlink" xml:space="preserve" overflow="hidden"><g transform="translate(-200 -297)"><g><g><g><g><path d="M210 332 210 311 216.7 317.7C223.4 311.7 232.3 308 242 308 263 308 280 325 280 346 280 367 263 384 242 384 231.5 384 222 379.7 215.1 372.9L223.6 364.4C228.3 369.1 234.8 372 242 372 256.3 372 268 360.3 268 346 268 331.7 256.3 320 242 320 235.6 320 229.7 322.3 225.2 326.2L231 332 210 332Z" stroke="#000000" stroke-width="1" stroke-linecap="butt" stroke-linejoin="miter" stroke-miterlimit="4" stroke-opacity="1" fill="#92D050" fill-rule="nonzero" fill-opacity="1"/></g></g></g></g></g></svg>