<svg width="96" height="96" xmlns="http://www.w3.org/2000/svg" xmlns:xlink="http://www.w3.org/1999/xlink" xml:space="preserve" overflow="hidden"><g transform="translate(-592 -312)"><g><path d="M639.979 322C619.004 322 602 339.004 602 359.979 602 380.954 619.004 397.958 639.979 397.958 660.954 397.958 677.958 380.954 677.958 359.979 677.967 339.013 660.979 322.009 640.013 322 640.002 322 639.99 322 639.979 322ZM639.979 395.958C620.108 395.958 604 379.85 604 359.979 604 340.108 620.108 324 639.979 324 659.85 324 675.958 340.108 675.958 359.979 675.935 379.84 659.84 395.935 639.979 395.958Z" stroke="#000C89" stroke-width="3" stroke-linecap="butt" stroke-linejoin="miter" stroke-miterlimit="4" stroke-opacity="1" fill="#000C89" fill-rule="nonzero" fill-opacity="1"/><path d="M641 347 633 347 633 349 639 349 639 379 632 379 632 381 648 381 648 379 641 379 641 347Z" stroke="#000C89" stroke-width="3" stroke-linecap="butt" stroke-linejoin="miter" stroke-miterlimit="4" stroke-opacity="1" fill="#000C89" fill-rule="nonzero" fill-opacity="1"/><path d="M641.064 338.5C641.064 339.743 640.057 340.75 638.814 340.75 637.571 340.75 636.564 339.743 636.564 338.5 636.564 337.257 637.571 336.25 638.814 336.25 640.057 336.25 641.064 337.257 641.064 338.5Z" stroke="#000C89" stroke-width="3" stroke-linecap="butt" stroke-linejoin="miter" stroke-miterlimit="4" stroke-opacity="1" fill="#000C89" fill-rule="nonzero" fill-opacity="1"/></g></g></svg>