<svg width="96" height="96" xmlns="http://www.w3.org/2000/svg" xmlns:xlink="http://www.w3.org/1999/xlink" xml:space="preserve" overflow="hidden"><g transform="translate(-592 -312)"><g><path d="M674 350 654 350 654 338 674 338 674 350ZM674 366 654 366 654 354 674 354 674 366ZM674 382 654 382 654 370 674 370 674 382ZM630 382 630 370 650 370 650 382 630 382ZM606 382 606 370 626 370 626 382 606 382ZM606 354 626 354 626 366 606 366 606 354ZM606 338 626 338 626 350 606 350 606 338ZM650 354 650 366 630 366 630 354 650 354ZM650 338 650 350 630 350 630 338 650 338ZM600 332 600 388 680 388 680 332 600 332Z" fill="#000C89" fill-rule="nonzero" fill-opacity="1"/></g></g></svg>