<svg width="98" height="97" xmlns="http://www.w3.org/2000/svg" xmlns:xlink="http://www.w3.org/1999/xlink" xml:space="preserve" overflow="hidden"><g transform="translate(-382 -297)"><g><g><g><g><path d="M71 48C71 49.6569 69.6569 51 68 51L35.24 51 44.12 59.88C45.2495 61.0922 45.1825 62.9905 43.9703 64.12 42.8182 65.1936 41.0321 65.1936 39.88 64.12L25.88 50.12C24.7102 48.9487 24.7102 47.0513 25.88 45.88L39.88 31.88C41.0922 30.7505 42.9905 30.8175 44.12 32.0297 45.1936 33.1818 45.1936 34.9679 44.12 36.12L35.24 45 68 45C69.6569 45 71 46.3431 71 48Z" stroke="#000000" stroke-width="1" stroke-linecap="butt" stroke-linejoin="miter" stroke-miterlimit="4" stroke-opacity="1" fill="#92D050" fill-rule="nonzero" fill-opacity="1" transform="matrix(-1 0 0 1 479 298)"/><path d="M10 48C10 68.9868 27.0132 86 48 86 68.9868 86 86 68.9868 86 48 86 27.0132 68.9868 10 48 10 27.0132 10 10 27.0132 10 48ZM16 48C16 30.3269 30.3269 16 48 16 65.6731 16 80 30.3269 80 48 80 65.6731 65.6731 80 48 80 30.3269 80 16 65.6731 16 48Z" stroke="#000000" stroke-width="1" stroke-linecap="butt" stroke-linejoin="miter" stroke-miterlimit="4" stroke-opacity="1" fill="#92D050" fill-rule="nonzero" fill-opacity="1" transform="matrix(-1 0 0 1 479 298)"/></g></g></g></g></g></svg>