<svg width="536" height="440" xmlns="http://www.w3.org/2000/svg" xmlns:xlink="http://www.w3.org/1999/xlink" xml:space="preserve" overflow="hidden"><g transform="translate(-2429 -1929)"><g><g><g><g><path d="M2572.02 2227.26 2727.62 2189.7 2727.62 2018.79 2614.37 1964.86 2466.38 1997.15 2466.38 2170.38ZM2611.87 1986.52 2685.91 2021.77 2625.97 2035.2 2574.93 2046.64 2506.12 2009.59ZM2487 2158.06 2487 2022.72 2563.12 2063.71 2563.12 2199.05ZM2707 2173.46 2583.75 2203.22 2583.75 2065.81 2637.32 2053.8 2707 2038.18Z" fill="#000C89" fill-rule="nonzero" fill-opacity="1"/><path d="M2609.68 1993.51 2616.56 1993.51 2616.56 2007.26 2609.68 2007.26Z" fill="#000C89" fill-rule="nonzero" fill-opacity="1"/><path d="M2609.68 2065.7 2616.56 2065.7 2616.56 2079.45 2609.68 2079.45Z" fill="#000C89" fill-rule="nonzero" fill-opacity="1"/><path d="M2609.68 2089.76 2616.56 2089.76 2616.56 2103.51 2609.68 2103.51Z" fill="#000C89" fill-rule="nonzero" fill-opacity="1"/><path d="M2609.68 2017.58 2616.56 2017.58 2616.56 2031.33 2609.68 2031.33Z" fill="#000C89" fill-rule="nonzero" fill-opacity="1"/><path d="M2609.68 2113.83 2616.56 2113.83 2616.56 2127.58 2609.68 2127.58Z" fill="#000C89" fill-rule="nonzero" fill-opacity="1"/><path d="M2659.85 2159.36 2662.68 2153.09 2675.21 2158.76 2672.37 2165.02Z" fill="#000C89" fill-rule="nonzero" fill-opacity="1"/><path d="M2593.48 2135.21 2606.92 2132.29 2608.38 2139 2594.95 2141.93Z" fill="#000C89" fill-rule="nonzero" fill-opacity="1"/><path d="M2499.45 2155.73 2512.88 2152.81 2514.35 2159.52 2500.91 2162.45Z" fill="#000C89" fill-rule="nonzero" fill-opacity="1"/><path d="M2637.92 2149.44 2640.75 2143.18 2653.28 2148.84 2650.45 2155.11Z" fill="#000C89" fill-rule="nonzero" fill-opacity="1"/><path d="M2681.77 2169.27 2684.6 2163.01 2697.13 2168.68 2694.3 2174.94Z" fill="#000C89" fill-rule="nonzero" fill-opacity="1"/><path d="M2616 2139.52 2618.83 2133.26 2631.36 2138.93 2628.53 2145.19Z" fill="#000C89" fill-rule="nonzero" fill-opacity="1"/><path d="M2522.96 2150.6 2536.39 2147.68 2537.85 2154.39 2524.42 2157.32Z" fill="#000C89" fill-rule="nonzero" fill-opacity="1"/><path d="M2546.47 2145.48 2559.9 2142.55 2561.36 2149.27 2547.93 2152.19Z" fill="#000C89" fill-rule="nonzero" fill-opacity="1"/></g></g></g><g><g><g><path d="M2798 1965.37C2725.86 1965.37 2667.38 2023.86 2667.38 2096 2667.38 2168.14 2725.86 2226.62 2798 2226.62 2870.14 2226.62 2928.63 2168.14 2928.63 2096 2928.63 2023.86 2870.14 1965.37 2798 1965.37ZM2827.56 2201.93C2828.66 2200.79 2829.74 2199.6 2830.78 2198.33L2825.5 2193.94C2822.78 2197.29 2819.66 2200.29 2816.22 2202.88L2817.25 2204.27C2804.51 2206.57 2791.46 2206.57 2778.72 2204.27L2779.75 2202.88C2776.31 2200.29 2773.2 2197.29 2770.47 2193.94L2765.2 2198.33C2766.23 2199.6 2767.33 2200.79 2768.42 2201.93 2709.92 2185.61 2675.72 2124.96 2692.04 2066.46 2702.38 2029.39 2731.34 2000.43 2768.4 1990.08 2766.62 1991.95 2764.94 1993.92 2763.38 1995.97L2768.84 2000.15C2771.44 1996.69 2774.42 1993.53 2777.72 1990.72L2775.68 1988.28C2790.4 1985.24 2805.58 1985.24 2820.3 1988.28L2818.26 1990.72C2821.56 1993.53 2824.55 1996.69 2827.15 2000.15L2832.62 1995.97C2831.06 1993.92 2829.38 1991.96 2827.6 1990.09 2886.1 2006.43 2920.27 2067.09 2903.93 2125.59 2893.58 2162.64 2864.62 2191.59 2827.56 2201.93Z" fill="#FFC000" fill-rule="nonzero" fill-opacity="1"/><path d="M2831.63 2185.38 2837.47 2189.01C2839.96 2184.99 2842.2 2180.81 2844.16 2176.51L2837.91 2173.64C2836.07 2177.68 2833.97 2181.6 2831.63 2185.38Z" fill="#FFC000" fill-rule="nonzero" fill-opacity="1"/><path d="M2845.33 2018.11C2843.46 2013.77 2841.33 2009.55 2838.96 2005.46L2833.03 2008.93C2835.26 2012.78 2837.27 2016.76 2839.03 2020.85Z" fill="#FFC000" fill-rule="nonzero" fill-opacity="1"/><path d="M2851.24 2067.65 2858.06 2066.79C2857.48 2062.16 2856.74 2057.51 2855.86 2052.99L2849.11 2054.3C2849.96 2058.68 2850.68 2063.17 2851.24 2067.65Z" fill="#FFC000" fill-rule="nonzero" fill-opacity="1"/><path d="M2846.74 2043.75 2853.4 2042.06C2852.23 2037.46 2850.88 2032.93 2849.39 2028.6L2842.89 2030.85C2844.32 2035 2845.62 2039.34 2846.74 2043.75Z" fill="#FFC000" fill-rule="nonzero" fill-opacity="1"/><path d="M2841.97 2163.72 2848.43 2166.08C2849.99 2161.81 2851.42 2157.31 2852.67 2152.69L2846.04 2150.89C2844.83 2155.33 2843.47 2159.65 2841.97 2163.72Z" fill="#FFC000" fill-rule="nonzero" fill-opacity="1"/><path d="M2852.1 2116.32 2858.95 2116.93C2859.36 2112.36 2859.64 2107.67 2859.78 2103L2852.9 2102.8C2852.77 2107.34 2852.5 2111.88 2852.1 2116.32Z" fill="#FFC000" fill-rule="nonzero" fill-opacity="1"/><path d="M2852.34 2078.43C2852.68 2082.86 2852.89 2087.41 2852.97 2091.96L2859.84 2091.84C2859.76 2087.16 2859.54 2082.47 2859.19 2077.9Z" fill="#FFC000" fill-rule="nonzero" fill-opacity="1"/><path d="M2848.56 2140.4 2855.29 2141.81C2856.23 2137.35 2857.04 2132.7 2857.7 2128.03L2850.89 2127.09C2850.25 2131.6 2849.47 2136.07 2848.56 2140.4Z" fill="#FFC000" fill-rule="nonzero" fill-opacity="1"/><path d="M2746.89 2054.3 2740.14 2052.99C2739.26 2057.51 2738.52 2062.16 2737.94 2066.79L2744.76 2067.65C2745.32 2063.17 2746.04 2058.68 2746.89 2054.3Z" fill="#FFC000" fill-rule="nonzero" fill-opacity="1"/><path d="M2743.66 2078.43 2736.81 2077.9C2736.47 2082.47 2736.24 2087.16 2736.16 2091.84L2743.04 2091.96C2743.11 2087.41 2743.34 2082.86 2743.66 2078.43Z" fill="#FFC000" fill-rule="nonzero" fill-opacity="1"/><path d="M2753.11 2030.85 2746.61 2028.62C2745.12 2032.95 2743.77 2037.48 2742.6 2042.08L2749.26 2043.77C2750.38 2039.34 2751.68 2035 2753.11 2030.85Z" fill="#FFC000" fill-rule="nonzero" fill-opacity="1"/><path d="M2762.97 2008.93 2757.04 2005.46C2754.67 2009.55 2752.54 2013.77 2750.67 2018.11L2756.97 2020.86C2758.73 2016.77 2760.74 2012.78 2762.97 2008.93Z" fill="#FFC000" fill-rule="nonzero" fill-opacity="1"/><path d="M2749.96 2150.9 2743.34 2152.72C2744.6 2157.34 2746.03 2161.84 2747.59 2166.1L2754.04 2163.74C2752.53 2159.65 2751.17 2155.33 2749.96 2150.9Z" fill="#FFC000" fill-rule="nonzero" fill-opacity="1"/><path d="M2751.85 2176.52C2753.82 2180.82 2756.05 2185 2758.54 2189.02L2764.37 2185.38C2762.04 2181.6 2759.94 2177.68 2758.1 2173.64Z" fill="#FFC000" fill-rule="nonzero" fill-opacity="1"/><path d="M2745.12 2127.09 2738.31 2128.03C2738.96 2132.7 2739.77 2137.32 2740.72 2141.81L2747.45 2140.4C2746.53 2136.07 2745.75 2131.6 2745.12 2127.09Z" fill="#FFC000" fill-rule="nonzero" fill-opacity="1"/><path d="M2743.1 2102.8 2736.22 2103C2736.36 2107.67 2736.64 2112.36 2737.05 2116.93L2743.9 2116.32C2743.5 2111.88 2743.23 2107.34 2743.1 2102.8Z" fill="#FFC000" fill-rule="nonzero" fill-opacity="1"/></g></g></g><g><g><g><path d="M2692 2076.81C2641.23 2076.81 2586.58 2090.08 2586.58 2119.21L2586.58 2288.79C2586.58 2317.92 2641.23 2331.19 2692 2331.19 2742.77 2331.19 2797.42 2317.92 2797.42 2288.79L2797.42 2119.21C2797.42 2090.08 2742.77 2076.81 2692 2076.81ZM2692 2097.44C2747.08 2097.44 2776.79 2112.91 2776.79 2119.21 2776.79 2125.51 2747.08 2140.98 2692 2140.98 2636.92 2140.98 2607.21 2125.51 2607.21 2119.21 2607.21 2112.9 2636.92 2097.44 2692 2097.44ZM2692 2310.56C2636.92 2310.56 2607.21 2295.09 2607.21 2288.79L2607.21 2145.76C2627.73 2156.52 2660.6 2161.61 2692 2161.61 2723.4 2161.61 2756.28 2156.52 2776.79 2145.76L2776.79 2288.79C2776.79 2295.09 2747.08 2310.56 2692 2310.56Z" fill="#00B0F0" fill-rule="nonzero" fill-opacity="1"/><path d="M2634.97 2259.57 2636.62 2266.25C2640.78 2265.22 2645.21 2264.3 2649.84 2263.5L2648.69 2256.73C2643.91 2257.55 2639.29 2258.5 2634.97 2259.57Z" fill="#00B0F0" fill-rule="nonzero" fill-opacity="1"/><path d="M2659.74 2255.14 2660.56 2261.96C2664.95 2261.44 2669.49 2261.02 2674.07 2260.72L2673.62 2253.85C2668.92 2254.17 2664.25 2254.6 2659.74 2255.14Z" fill="#00B0F0" fill-rule="nonzero" fill-opacity="1"/><path d="M2610.94 2268.11 2614.08 2274.23C2618.02 2272.25 2622.11 2270.57 2626.31 2269.21L2624.13 2262.68C2619.61 2264.16 2615.2 2265.97 2610.94 2268.11Z" fill="#00B0F0" fill-rule="nonzero" fill-opacity="1"/><path d="M2684.75 2253.36 2684.92 2260.24C2689.39 2260.13 2694.01 2260.12 2698.5 2260.24L2698.67 2253.36C2694.06 2253.24 2689.34 2253.25 2684.75 2253.36Z" fill="#00B0F0" fill-rule="nonzero" fill-opacity="1"/><path d="M2757.16 2269.03C2761.37 2270.38 2765.47 2272.04 2769.43 2273.98L2772.53 2267.83C2768.26 2265.74 2763.84 2263.95 2759.31 2262.5Z" fill="#00B0F0" fill-rule="nonzero" fill-opacity="1"/><path d="M2733.59 2263.42C2738.19 2264.19 2742.64 2265.09 2746.82 2266.11L2748.45 2259.43C2744.11 2258.37 2739.49 2257.43 2734.73 2256.64Z" fill="#00B0F0" fill-rule="nonzero" fill-opacity="1"/><path d="M2709.36 2260.69C2713.93 2260.97 2718.48 2261.38 2722.88 2261.9L2723.68 2255.07C2719.16 2254.54 2714.49 2254.12 2709.8 2253.83Z" fill="#00B0F0" fill-rule="nonzero" fill-opacity="1"/></g></g></g></g></g></svg>