<svg width="96" height="97" xmlns="http://www.w3.org/2000/svg" xmlns:xlink="http://www.w3.org/1999/xlink" xml:space="preserve" overflow="hidden"><g transform="translate(-160 -37)"><g><g><g><g><path d="M208 84 193 85.1 193 67C193 58.7 199.7 52 208 52 216.3 52 223 58.7 223 67L223 73 229 73 229 67C229 55.4 219.6 46 208 46 196.4 46 187 55.4 187 67L187 85.5 180 86 180 124 208 126 236 124 236 86 208 84ZM210 110.7 210 116 206 116 206 110.7C203.7 109.9 202 107.7 202 105 202 101.7 204.7 99 208 99 211.3 99 214 101.7 214 105 214 107.6 212.3 109.8 210 110.7Z" fill="#70AD47" fill-rule="nonzero" fill-opacity="1"/></g></g></g></g></g></svg>