<svg width="97" height="97" xmlns="http://www.w3.org/2000/svg" xmlns:xlink="http://www.w3.org/1999/xlink" xml:space="preserve" overflow="hidden"><g transform="translate(-44 -37)"><g><g><g><g><path d="M95 107.2 95 112.5 91 112.5 91 107.2C88.7 106.4 87 104.2 87 101.5 87 98.2 89.7 95.5 93 95.5 96.3 95.5 99 98.2 99 101.5 99 104.1 97.3 106.3 95 107.2ZM78 70.5C78 62.2 84.7 55.5 93 55.5 101.3 55.5 108 62.2 108 70.5L108 81.6 93 80.5 78 81.6 78 70.5ZM114 82 114 70.5C114 58.9 104.6 49.5 93 49.5 81.4 49.5 72 58.9 72 70.5L72 82 65 82.5 65 120.5 93 122.5 121 120.5 121 82.5 114 82Z" fill="#FF0000" fill-rule="nonzero" fill-opacity="1"/></g></g></g></g></g></svg>